HIERARCHY
ROOT hips
{
  OFFSET 0 9.815833067270322 1.281835130624493
  CHANNELS 6 Xposition Yposition Zposition Yrotation Xrotation Zrotation
  JOINT spine
  {
    OFFSET -6.807828027342062e-31 0.5511052078645924 0
    CHANNELS 3 Yrotation Xrotation Zrotation
    JOINT chest
    {
      OFFSET 0 1.2043438549513348 0
      CHANNELS 3 Yrotation Xrotation Zrotation
      JOINT upperChest
      {
        OFFSET 0 1.1572743564610968 0
        CHANNELS 3 Yrotation Xrotation Zrotation
        JOINT neck
        {
          OFFSET 0 1.4672838981332694 0
          CHANNELS 3 Yrotation Xrotation Zrotation
          JOINT head
          {
            OFFSET 0 0.7769233259443401 0
            CHANNELS 3 Yrotation Xrotation Zrotation
            JOINT leftEye
            {
              OFFSET 0.2721652001183514 0.7168723163648669 0.17193742873055579
              CHANNELS 3 Yrotation Xrotation Zrotation
              End Site
              {
                OFFSET 0.2721652001183514 0.7168723163648669 0.17193742873055579
              }
            }
            JOINT rightEye
            {
              OFFSET -0.27216526610280267 0.7168709402323974 0.1719378121450697
              CHANNELS 3 Yrotation Xrotation Zrotation
              End Site
              {
                OFFSET -0.27216526610280267 0.7168709402323974 0.1719378121450697
              }
            }
          }
        }
        JOINT leftShoulder
        {
          OFFSET 0.4003006608521876 1.1228120285947116 0
          CHANNELS 3 Yrotation Xrotation Zrotation
          JOINT leftUpperArm
          {
            OFFSET 1.1829713490941076 0 0
            CHANNELS 3 Yrotation Xrotation Zrotation
            JOINT leftLowerArm
            {
              OFFSET 2.3403355087682653 0 0
              CHANNELS 3 Yrotation Xrotation Zrotation
              JOINT leftHand
              {
                OFFSET 2.263135184842559 0 0
                CHANNELS 3 Yrotation Xrotation Zrotation
                JOINT leftIndexProximal
                {
                  OFFSET 0.6908871347590931 0.07757415291299052 0.19323856470480705
                  CHANNELS 3 Yrotation Xrotation Zrotation
                  JOINT leftIndexIntermediate
                  {
                    OFFSET 0.34863098734703823 -0.01007918696325305 -0.013463491561925514
                    CHANNELS 3 Yrotation Xrotation Zrotation
                    JOINT leftIndexDistal
                    {
                      OFFSET 0.2146456611185532 -0.0074721772400270225 -0.007179731675015122
                      CHANNELS 3 Yrotation Xrotation Zrotation
                      End Site
                      {
                        OFFSET 0.2146456611185532 -0.0074721772400270225 -0.007179731675015122
                      }
                    }
                  }
                }
                JOINT leftLittleProximal
                {
                  OFFSET 0.641031137590224 0.07757409788358327 -0.30666317901156426
                  CHANNELS 3 Yrotation Xrotation Zrotation
                  JOINT leftLittleIntermediate
                  {
                    OFFSET 0.3298813033034196 5.349700815671099e-8 8.442660452689932e-8
                    CHANNELS 3 Yrotation Xrotation Zrotation
                    JOINT leftLittleDistal
                    {
                      OFFSET 0.1900652342264466 0.0029551914829850645 0.0036537189326710517
                      CHANNELS 3 Yrotation Xrotation Zrotation
                      End Site
                      {
                        OFFSET 0.1900652342264466 0.0029551914829850645 0.0036537189326710517
                      }
                    }
                  }
                }
                JOINT leftMiddleProximal
                {
                  OFFSET 0.6963661567547548 0.07757542338171697 0.02151546619791929
                  CHANNELS 3 Yrotation Xrotation Zrotation
                  JOINT leftMiddleIntermediate
                  {
                    OFFSET 0.38878370897355696 -0.0000012405401190740406 -1.0025342356279054e-7
                    CHANNELS 3 Yrotation Xrotation Zrotation
                    JOINT leftMiddleDistal
                    {
                      OFFSET 0.23984530190355968 7.330616180745153e-8 -7.979881885833429e-8
                      CHANNELS 3 Yrotation Xrotation Zrotation
                      End Site
                      {
                        OFFSET 0.23984530190355968 7.330616180745153e-8 -7.979881885833429e-8
                      }
                    }
                  }
                }
                JOINT leftRingProximal
                {
                  OFFSET 0.6884333933839174 0.07757410137752707 -0.1428234436272266
                  CHANNELS 3 Yrotation Xrotation Zrotation
                  JOINT leftRingIntermediate
                  {
                    OFFSET 0.3606431681907045 6.236339089582543e-8 -7.965728537895345e-8
                    CHANNELS 3 Yrotation Xrotation Zrotation
                    JOINT leftRingDistal
                    {
                      OFFSET 0.20805956907771406 -0.0025883149289516183 -0.004760848471664969
                      CHANNELS 3 Yrotation Xrotation Zrotation
                      End Site
                      {
                        OFFSET 0.20805956907771406 -0.0025883149289516183 -0.004760848471664969
                      }
                    }
                  }
                }
                JOINT leftThumbProximal
                {
                  OFFSET 0.10260636427348457 -0.15692576071650954 -0.07370661813742284
                  CHANNELS 3 Yrotation Xrotation Zrotation
                  JOINT leftThumbIntermediate
                  {
                    OFFSET 0.38487767733512546 -0.01658181295589012 0.30162561831913426
                    CHANNELS 3 Yrotation Xrotation Zrotation
                    JOINT leftThumbDistal
                    {
                      OFFSET 0.22124595789268453 -0.01760258530005454 0.2032218200391737
                      CHANNELS 3 Yrotation Xrotation Zrotation
                      End Site
                      {
                        OFFSET 0.22124595789268453 -0.01760258530005454 0.2032218200391737
                      }
                    }
                  }
                }
              }
            }
          }
        }
        JOINT rightShoulder
        {
          OFFSET -0.4003006608521876 1.1228120285947116 0
          CHANNELS 3 Yrotation Xrotation Zrotation
          JOINT rightUpperArm
          {
            OFFSET -1.1829713490941074 0 0
            CHANNELS 3 Yrotation Xrotation Zrotation
            JOINT rightLowerArm
            {
              OFFSET -2.3403355087682667 0 0
              CHANNELS 3 Yrotation Xrotation Zrotation
              JOINT rightHand
              {
                OFFSET -2.263135184842558 0 0
                CHANNELS 3 Yrotation Xrotation Zrotation
                JOINT rightIndexProximal
                {
                  OFFSET -0.6908871347590931 0.07757415291299052 0.19323856470480705
                  CHANNELS 3 Yrotation Xrotation Zrotation
                  JOINT rightIndexIntermediate
                  {
                    OFFSET -0.34863098734703823 -0.01007918696325305 -0.013463491561925514
                    CHANNELS 3 Yrotation Xrotation Zrotation
                    JOINT rightIndexDistal
                    {
                      OFFSET -0.2146456611185532 -0.0074721772400270225 -0.007179731675015122
                      CHANNELS 3 Yrotation Xrotation Zrotation
                      End Site
                      {
                        OFFSET -0.2146456611185532 -0.0074721772400270225 -0.007179731675015122
                      }
                    }
                  }
                }
                JOINT rightLittleProximal
                {
                  OFFSET -0.641031137590224 0.07757409788358327 -0.30666317901156426
                  CHANNELS 3 Yrotation Xrotation Zrotation
                  JOINT rightLittleIntermediate
                  {
                    OFFSET -0.3298813033034196 5.349700815671099e-8 8.442660452689932e-8
                    CHANNELS 3 Yrotation Xrotation Zrotation
                    JOINT rightLittleDistal
                    {
                      OFFSET -0.1900652342264466 0.0029551914829850645 0.0036537189326710517
                      CHANNELS 3 Yrotation Xrotation Zrotation
                      End Site
                      {
                        OFFSET -0.1900652342264466 0.0029551914829850645 0.0036537189326710517
                      }
                    }
                  }
                }
                JOINT rightMiddleProximal
                {
                  OFFSET -0.6963661567547548 0.07757542338171697 0.02151546619791929
                  CHANNELS 3 Yrotation Xrotation Zrotation
                  JOINT rightMiddleIntermediate
                  {
                    OFFSET -0.38878370897355696 -0.0000012405401190740406 -1.0025342356279054e-7
                    CHANNELS 3 Yrotation Xrotation Zrotation
                    JOINT rightMiddleDistal
                    {
                      OFFSET -0.23984530190355968 7.330616180745153e-8 -7.979881885833429e-8
                      CHANNELS 3 Yrotation Xrotation Zrotation
                      End Site
                      {
                        OFFSET -0.23984530190355968 7.330616180745153e-8 -7.979881885833429e-8
                      }
                    }
                  }
                }
                JOINT rightRingProximal
                {
                  OFFSET -0.6884333933839174 0.07757410137752707 -0.1428234436272266
                  CHANNELS 3 Yrotation Xrotation Zrotation
                  JOINT rightRingIntermediate
                  {
                    OFFSET -0.3606431681907045 6.236339089582543e-8 -7.965728537895345e-8
                    CHANNELS 3 Yrotation Xrotation Zrotation
                    JOINT rightRingDistal
                    {
                      OFFSET -0.20805956907771406 -0.0025883149289516183 -0.004760848471664969
                      CHANNELS 3 Yrotation Xrotation Zrotation
                      End Site
                      {
                        OFFSET -0.20805956907771406 -0.0025883149289516183 -0.004760848471664969
                      }
                    }
                  }
                }
                JOINT rightThumbProximal
                {
                  OFFSET -0.10260636427348457 -0.15692576071650954 -0.07370661813742284
                  CHANNELS 3 Yrotation Xrotation Zrotation
                  JOINT rightThumbIntermediate
                  {
                    OFFSET -0.38487767733512546 -0.01658181295589012 0.30162561831913426
                    CHANNELS 3 Yrotation Xrotation Zrotation
                    JOINT rightThumbDistal
                    {
                      OFFSET -0.22124595789268453 -0.01760258530005454 0.2032218200391737
                      CHANNELS 3 Yrotation Xrotation Zrotation
                      End Site
                      {
                        OFFSET -0.22124595789268453 -0.01760258530005454 0.2032218200391737
                      }
                    }
                  }
                }
              }
            }
          }
        }
      }
    }
  }
  JOINT leftUpperLeg
  {
    OFFSET 0.8204033191191683 -0.4254565720126001 0
    CHANNELS 3 Yrotation Xrotation Zrotation
    JOINT leftLowerLeg
    {
      OFFSET 0 -3.7377869164845747 0
      CHANNELS 3 Yrotation Xrotation Zrotation
      JOINT leftFoot
      {
        OFFSET 0 -4.3627937946580655 0.0048303595310162095
        CHANNELS 3 Yrotation Xrotation Zrotation
        JOINT leftToes
        {
          OFFSET 0 -0.6641331633617491 1.1541833284833656
          CHANNELS 3 Yrotation Xrotation Zrotation
          End Site
          {
            OFFSET 0 -0.6641331633617491 1.1541833284833656
          }
        }
      }
    }
  }
  JOINT rightUpperLeg
  {
    OFFSET -0.8204033191191683 -0.4254565720126001 0
    CHANNELS 3 Yrotation Xrotation Zrotation
    JOINT rightLowerLeg
    {
      OFFSET 0 -3.7377869164845747 0
      CHANNELS 3 Yrotation Xrotation Zrotation
      JOINT rightFoot
      {
        OFFSET 0 -4.3627937946580655 0.0048303595310162095
        CHANNELS 3 Yrotation Xrotation Zrotation
        JOINT rightToes
        {
          OFFSET 0 -0.6641331633617491 1.1541833284833656
          CHANNELS 3 Yrotation Xrotation Zrotation
          End Site
          {
            OFFSET 0 -0.6641331633617491 1.1541833284833656
          }
        }
      }
    }
  }
}
MOTION
Frames: 4
Frame Time: 0.03333333333333333
0.5164779424667358 -0.6700801604710058 -0.4901210367679596 -7.019735718967813 3.2033881216330142 2.320345393259591 -0.049373908634935695 2.8912002451735868 -1.162012370386248 -0.8059157010947405 11.560399412334487 -1.9242565896462684 0 0 0 2.927184038339985 0.63972123189403 -3.2893628599550966 1.8716033381783133 -11.51656793412547 1.3905621827358396 0 0 0 0 0 0 -14.403101863301597 -4.739989571895975 -15.385299093464152 -16.65784393941594 13.650592572223802 -53.33969883183604 -94.93118428892105 9.100094052245591 18.615265323103827 1.4661435314955218 -0.3247281415009033 16.415733808936555 2.4265891282671816 5.435027567497458 -82.48793608380413 5.239807496167957 5.13767379243566 -98.19804593765917 3.9192905804218934 2.265864643184652 -63.246442052805364 26.39383504672695 -2.86719213266271 -88.86297138013967 4.402923639230159 2.7284774283977336 -73.97656513916347 2.442670849912548 5.477749319397922 -90.08045731523984 10.292718860852382 1.9974652449542456 -74.88713121884756 5.369413381378358 4.31971972289268 -89.59444980957645 5.48312839781979 2.5954142789100554 -65.48587982853932 19.912104934268424 0.9608488140471757 -81.31709333030264 4.283158451249792 5.097117114498748 -91.47876582799661 5.116983706068536 3.115222368215939 -68.31954011852321 -1.0156862541175762 5.781844224001899 16.53375226450287 34.00430992282534 15.800615724611507 3.984763538854859 -19.322700706127076 -6.825878069063956 1.2090299659948573 12.046955822879271 -2.8319399850173235 14.043728683396456 11.97200968662418 19.24932656499304 62.617162635611194 100.02440116581673 16.93488897593843 -21.042149482738644 17.855298082387716 -6.168893944518992 -9.776259680902653 0.07439481219921461 3.495647988835295 77.15862089126844 -5.281606801902975 4.292642693676762 87.33912999710694 -3.0939114967055015 0.931653457540429 56.075631815743364 -24.737248605807643 -4.777539057392934 80.39489011790663 -4.253612074433988 2.410582199197974 69.4563178537487 -2.0451271330732474 -0.888097557816164 77.54576227018923 -9.734279629172729 1.4019682413262822 68.47744449488947 -5.335381680727165 3.8872823813042605 83.96888362930686 -3.2844743768846114 -2.4839613927343716 63.64014536451693 -19.32820024796954 -0.8002247786630438 74.54216478715131 -4.305524986914711 4.959646133486566 89.64628346908303 -2.935789055133678 -3.131111857682171 68.54175836848486 1.0148512743408091 5.779044980612435 -16.5385881060495 -35.37423141739517 14.887766233540193 -3.609471429737786 19.95758901931522 -7.2603783606947605 3.650587073567334 1.7787331715965846 -5.055002202780855 -8.782189330810104 14.752247805170734 29.513732510178638 6.6067969925931544 -4.055539985580471 -25.2734432139744 3.667309562305301 0.0947844754904536 -6.569536950501041 -0.19191938266872646 -4.42108762253698 -25.798529519372668 -5.0360176809490405 -39.746987572360815 66.15006862327327 -44.56977254269444 1.8434432660717803 10.817295956392506 1.1627660058971236 5.40425919185479 -10.57567578802727 -6.54677605958473
0.4749467968940735 -0.3971414321384863 -0.44227996468544006 -8.66234898691721 3.940448773724125 0.10762525728669659 -0.4533858760071587 2.624546868673833 -0.722671211605558 -2.064889251871568 10.532017168260486 0.34618380710290075 0 0 0 4.5034962360026105 1.6008903374002672 -4.987644580692631 3.2227508959133067 -11.174043290808175 0.804619557337773 0 0 0 0 0 0 -14.56791137140379 -4.614986733291787 -14.687266702139 -18.77686618521745 14.311247925297781 -53.56123845719727 -98.0756524697926 8.052257656968841 20.379290333161673 -1.2957702120056653 -0.00649613190204135 15.745172410943262 2.430818394689328 5.357315473884485 -84.71044088690832 5.251629393303469 5.049701872896379 -97.06093041945466 3.874637932423424 2.1885538069665453 -62.112119995475055 26.53998358168464 -2.4711250733484236 -90.09834519908786 4.386735737391947 2.6906441203024234 -73.44290475463734 2.4539211373086753 5.4594739310639415 -89.54381223642051 10.46263293864252 2.2991726612994485 -76.3957958028424 5.367959793901051 4.278111822437865 -89.05551823147066 5.465600820840216 2.544911214576003 -64.94886474679663 20.02852681784441 1.3990398834403752 -82.9985878272266 4.289147944172143 5.0542890898971224 -90.92843705782312 5.103582689830765 3.061370504507748 -67.77156951957845 -1.0156862541175762 5.781844224001899 16.53375226450287 35.85309250476628 13.226694314642874 4.444483673245738 -19.300418009592402 -6.845708766562084 0.8288418549145357 10.728357758605513 -2.3198522754226034 12.56241540485557 12.533090012624614 23.470238648079253 63.24645881187101 100.01798009550716 18.166432251081982 -21.908747200265434 12.84135224283671 -7.316206902235525 -7.626939637978593 -0.02275187984711192 4.287570299191046 74.01070606706541 -5.269881197743652 4.116732334963611 85.08376837774149 -2.951943455602157 0.8127082393453897 53.82232876154859 -23.376682120900043 -5.58157581935821 74.14796574917942 -4.2209683539433485 2.3480369533136347 68.54607950058328 -1.960064192919019 -0.9120519060158466 76.63422854499284 -9.444442737483984 1.4953157596589903 64.51444862123581 -5.323421697807033 3.801685925148173 82.85136777630416 -3.149133625376534 -2.544681750056964 62.522863615663304 -18.938551295588148 -1.685003911969918 70.86866828186488 -4.309211633315286 4.927887130572736 89.23860233548565 -2.8992748385303333 -3.1478220215741306 68.26535332502343 1.0148512743408091 5.779044980612435 -16.5385881060495 -36.6783710707598 13.639773847915626 -3.536823083446434 19.79810223044016 -7.422023355507159 6.139913560395696 2.8610403983741928 3.8858194909249577 -6.455985987172806 10.746515693634874 16.110993186413207 2.96741104852319 -2.8506385499354097 -13.00565638997015 3.0817013502163317 0.7983669074874479 -16.226627662398947 -0.12013376454549798 -6.4172264475710765 -27.16411163506405 0.042180756269480646 -23.490743159746014 57.04785327695247 -26.806877512346038 1.8241107118217155 10.157409607566304 1.3978237831910978 5.473417205039667 -12.453461729805502 -3.2881971411185407
0.4465629756450653 -0.2856425994358496 -0.4148901700973511 -9.447674923225241 4.581710088579464 -0.9941374845183271 -0.6024205014562163 2.4480794876943452 -0.5032973015793666 -2.4796918215478105 9.857820907694554 1.5206045154335641 0 0 0 5.212191248475413 1.7305231163677723 -5.815075565776489 3.7377217533803946 -11.168185553573736 0.7581976138300124 0 0 0 0 0 0 -14.59176939831423 -4.568629148657579 -14.437800727700125 -19.736823412898655 14.80328449362374 -53.68564598661372 -99.40579155993173 8.8231270426327 21.034356231356366 -3.0119955982443036 0.1713657397231071 14.925067046034135 2.494965490792759 5.420559534229682 -85.63602708409985 5.260392631116191 4.973889762073474 -96.08318025720811 3.835017692979187 2.122806190804541 -61.136635699526096 26.59188002147667 -2.324801610811082 -90.55069020555709 4.373822780779786 2.661000794297595 -73.02498210826414 2.462155757766538 5.445120234162289 -89.12361748960413 10.550630070249742 2.4638458802594427 -76.94197511936677 5.366238557149382 4.239896396599328 -88.56079934736192 5.449118702662119 2.498693521285506 -64.45575741096374 20.065084757465495 1.5546501403567845 -83.60060841129543 4.292791743949126 5.0269471158767915 -90.57719931933642 5.094766308396088 3.0270821658910863 -67.42183374862495 -1.0156862541175762 5.781844224001899 16.53375226450287 36.72817617556355 12.022983592475597 4.624048786872103 -19.28959510739838 -6.85533936010441 0.644044567550181 10.106474071195816 -2.073432442687574 11.77163708156279 12.174925341085991 25.221403547062685 63.40173144068768 100.17728401325952 18.699587556368872 -22.305940429291258 9.71574061055398 -7.863898330767324 -5.522385716019493 -0.0804108483369411 4.512030326837062 73.43221370159942 -5.264285802081189 4.056774312893989 84.31352531939245 -2.902352673241519 0.7733988155017846 53.05260335798692 -23.189950304741497 -5.794444423354657 73.21013390443466 -4.2147898945750315 2.336377471101089 68.3763713440116 -1.9441385437399548 -0.9163609165072424 76.4642857120805 -9.394972598473002 1.4624394321619036 63.66402239728297 -5.319507553551663 3.7761175757628345 82.51698234102153 -3.1084104910849333 -2.5623611070024688 62.18841856920512 -18.86066474233714 -1.8450293643109257 70.19176106075032 -4.310148548562628 4.919629267588627 89.13240296831952 -2.882160544116759 -3.1555954354112754 68.13590219894365 1.0148512743408091 5.779044980612435 -16.5385881060495 -36.42633473635711 13.877869432068142 -3.5589403459031987 19.782227681908992 -7.433533185181209 6.350962184016337 3.775025832447767 7.40766834739988 -5.128784704738938 9.800143623667791 10.209562629333721 1.760187098757065 -2.853998997123223 -4.8959128496409585 3.13084176527601 0.6496952236837835 -21.16616323734878 2.1079412706227107 -7.35844341325234 -27.16528813169256 2.7584193209606553 -17.253219318706627 51.08823611176705 -20.188806447441713 1.8821287829903934 8.347972926518436 2.471588005592166 4.972486636189417 -13.193113910369586 1.5427001882433335
0.39722883701324463 -0.14043519434551754 -0.3633032441139221 -10.580745222115779 6.298526489677348 -2.8257373830672265 -0.8382696300477539 2.0688700974712595 0.007956766458811305 -3.1116882484105486 8.398867620427996 3.440001042720243 0 0 0 6.306392580394582 1.1224751856401822 -7.183662261357161 4.327126276242501 -11.566320990777037 1.200419196240942 0 0 0 0 0 0 -14.710814621389604 -4.522059594553588 -14.133492522045724 -21.776175157630988 16.06694642522437 -53.609492603975724 -102.23963877623856 10.385096410237749 22.435785002532818 -6.120731103030279 0.3548467374686966 13.708282053310466 2.6757346473839014 5.7055448885135975 -85.32207032377814 5.279035510130953 4.742720320053062 -93.11325513662865 3.7078252726567347 1.927433082825558 -58.17288349214064 26.522929939527447 -2.5027528118863938 -90.096715729453 4.358007029280115 2.625581233660644 -72.52216785690315 2.472459925534076 5.427740763902902 -88.61794013592215 10.590420002418027 2.5272156457894197 -76.3449477220617 5.361462193054379 4.158071360275866 -87.50025227337002 5.412441790417961 2.4001168124525742 -63.39863345018683 20.023087516207287 1.3681073967752715 -82.85199054005525 4.298051912042515 4.98418627928424 -90.02920752000873 5.080369965551202 2.9739524169364757 -66.87619679828772 -1.0156862541175762 5.781844224001899 16.53375226450287 36.85502009816348 11.84790159498978 4.651666509350539 -19.27341935716566 -6.869515806930965 0.37013887948252944 8.989035267065248 -1.6065595873597418 10.108620494361384 10.309767752511748 28.033590355278477 63.436464554782575 100.8856422735955 20.535884798352335 -23.038674216947058 3.344105879679917 -8.369030386036796 0.479875013366974 -0.14139166721621266 4.607802022383866 73.6410322436719 -5.261222596055404 4.026936698131271 83.92996895647289 -2.877506337707933 0.754139439270349 52.66929976262874 -23.16497815246399 -5.780613653620769 73.12593271554906 -4.22325146822086 2.3515559656340828 68.60216222302337 -1.9652072357162855 -0.9106404396314285 76.69037552337505 -9.399698500438744 1.4973586828651797 63.772931885072765 -5.3173613801096975 3.762493038879662 82.33830853569457 -3.086560706296342 -2.5716699642710172 62.00962535809622 -18.87466642566631 -1.816647178568073 70.31214220434508 -4.310321535409613 4.917892699991412 89.10903404450823 -2.877096677639225 -3.1578735586002336 68.09793448816401 1.0148512743408091 5.779044980612435 -16.5385881060495 -36.42151451769547 13.882607932095036 -3.557248344685673 19.77315765781896 -7.440064854922568 6.470931149748614 5.576221521892413 8.346412776395919 -2.0945330554385304 8.781552439330852 8.58302515850299 1.2242894043909902 -3.035675188376268 10.055582025262606 -3.9238490256076446 -1.5654833472509446 -30.923984426315506 6.136931394712726 -8.804367849520194 -26.535268988493225 7.418726691651711 -7.14133675039373 38.492601571148654 -10.377800244637358 1.85296409039837 0.6221241035418854 6.094399569116705 3.5825254561903948 -2.825139076206897 -3.2729337284474282
